# AST/ASF file generated using VICON BodyLanguage
# -----------------------------------------------
:version 1.10
:name VICON
:units
  mass 1.0
  length 0.45
  angle deg
:documentation
   .ast/.asf automatically generated from VICON data using
   VICON BodyBuilder and BodyLanguage model FoxedUp or BRILLIANT.MOD
:root
   order TX TY TZ RX RY RZ
   axis XYZ
   position 0 0 0  
   orientation 0 0 0 
:bonedata
  begin
     id 1 
     name lhipjoint
     direction 0.64773 -0.699417 0.302095 
     length 2.48597 
     axis 0 0 0  XYZ
  end
  begin
     id 2 
     name lfemur
     direction 0.34202 -0.939693 0  
     length 6.71947  
     axis 0 0 20  XYZ
    dof rx ry rz
    limits (-160.0 20.0)
           (-70.0 70.0)
           (-60.0 70.0)
  end
  begin
     id 3 
     name ltibia
     direction 0.34202 -0.939693 0   
     length 8.08777   
     axis 0 0 20   XYZ
    dof rx
    limits (-10.0 170.0)
  end
  begin
     id 4 
     name lfoot
     direction 0.0808503 -0.222134 0.971658   
     length 2.08264   
     axis -90 7.62852e-016 20   XYZ
    dof rx rz
    limits (-45.0 90.0)
           (-70.0 20.0)
  end
  begin
     id 5 
     name ltoes
     direction 1.53502e-011 -4.22007e-011 1   
     length 1.04662   
     axis -90 7.62852e-016 20   XYZ
    dof rx
    limits (-90.0 20.0)
  end
  begin
     id 6 
     name rhipjoint
     direction -0.610924 -0.726792 0.313919   
     length 2.39233  
     axis 0 0 0  XYZ 
  end
  begin
     id 7 
     name rfemur
     direction -0.34202 -0.939693 0   
     length 6.96955   
     axis 0 0 -20   XYZ
    dof rx ry rz
    limits (-160.0 20.0)
           (-70.0 70.0)
           (-70.0 60.0)
  end
  begin
     id 8 
     name rtibia
     direction -0.34202 -0.939693 0   
     length 8.19584   
     axis 0 0 -20   XYZ
    dof rx
    limits (-10.0 170.0)
 end
 begin
     id 9 
     name rfoot
     direction -0.077777 -0.213691 0.9738   
     length 2.07539  
     axis -90 -7.62852e-016 -20   XYZ
    dof rx rz
    limits (-45.0 90.0)
           (-20.0 70.0)
  end
  begin
     id 10 
     name rtoes
     direction -1.53558e-011 -4.22006e-011 1   
     length 1.04381   
     axis -90 -7.62852e-016 -20   XYZ
    dof rx
    limits (-90.0 20.0)
  end
  begin
     id 11 
     name lowerback
     direction -0.00971646 0.996074 0.0879841   
     length 1.67643   
     axis 0 0 0   XYZ
    dof rx ry rz
    limits (-20.0 45.0)
           (-30.0 30.0)
           (-30.0 30.0)
  end
  begin
     id 12 
     name upperback
     direction 0.0127391 0.991676 0.128127   
     length 1.63741   
     axis 0 0 0   XYZ
    dof rx ry rz
    limits (-20.0 45.0)
           (-30.0 30.0)
           (-30.0 30.0)
  end
  begin
     id 13 
     name thorax
     direction 0.0167583 0.996049 0.0872067   
     length 1.65931   
     axis 0 0 0   XYZ
    dof rx ry rz
    limits (-20.0 45.0)
           (-30.0 30.0)
           (-30.0 30.0)
  end
  begin
     id 14 
     name lowerneck
     direction -0.0317829 0.998312 0.0486079   
     length 1.79021   
     axis 0 0 0   XYZ
    dof rx ry rz
    limits (-20.0 45.0)
           (-30.0 30.0)
           (-30.0 30.0)
  end
  begin
     id 15 
     name upperneck
     direction 0.0896851 0.972452 -0.215159   
     length 1.78797   
     axis 0 0 0   XYZ
    dof rx ry rz
    limits (-20.0 45.0)
           (-30.0 30.0)
           (-30.0 30.0)
  end
  begin
     id 16
     name head
     direction 0.0310949 0.996503 -0.0775582  
     length 1.81549  
     axis 0 0 0   XYZ
    dof rx ry rz
    limits (-20.0 45.0)
           (-30.0 30.0)
           (-30.0 30.0)
  end
  begin
     id 17 
     name lclavicle
     direction 0.853638 0.502051 -0.138733  
     length 3.31627  
     axis 0 0 0   XYZ
    dof ry rz
    limits (-20.0 10.0)
           (0.0 20.0)
  end
  begin
     id 18 
     name lhumerus
     direction 1 -4.48962e-011 -1.41788e-018   
     length 5.54893   
     axis 180 -30 -90   XYZ
    dof rx ry rz
    limits (-60.0 90.0)
           (-90.0 90.0)
           (-90.0 90.0)
  end
  begin
     id 19
     name lradius
     direction 1 -4.48962e-011 -4.95754e-027   
     length 3.02898   
     axis 180 -30 -90   XYZ
    dof rx
    limits (-10.0 170.0)
  end
  begin
     id 20
     name lwrist
     direction 1 -4.48952e-011 -1.03764e-026   
     length 1.51449   
     axis 9.09556e-015 90 90   XYZ
    dof ry
    limits (-180.0 0.0)
 end
  begin
     id 21 
     name lhand
     direction 1 -4.4902e-011 -2.07528e-026   
     length 0.640951   
     axis 1.3242e-014 90 90   XYZ
    dof rx rz
    limits (-90.0 90.0)
           (-45.0 45.0)
  end
  begin
     id 22 
     name lfingers
     direction 1 -4.49014e-011 -4.15056e-026   
     length 0.516751   
     axis 2.64841e-014 90 90   XYZ
    dof rx
    limits (0.0 90.0)
  end
  begin
     id 23
     name lthumb
     direction 0.707107 -6.35008e-011 0.707107   
     length 0.741954   
     axis -90 45 2.85299e-015   XYZ
    dof rx rz
    limits (-45.0 45.0)
           (-45.0 45.0)
  end
  begin
     id 24 
     name rclavicle
     direction -0.888531 0.455324 -0.0565039   
     length 3.20126  
     axis 0 0 0   XYZ 
    dof ry rz
    limits (-10.0 20.0)
           (-20.0 0.0)
  end
  begin
     id 25 
     name rhumerus
     direction -1 -4.48946e-011 -8.98298e-028  
     length 5.3519   
     axis 180 30 90   XYZ
    dof rx ry rz
    limits (-90.0 60.0)
           (-90.0 90.0)
           (-90.0 90.0)
  end
  begin
     id 26 
     name rradius
     direction -1 -4.4899e-011 -3.18779e-027   
     length 3.02531   
     axis 180 30 90   XYZ
    dof rx
    limits (-10.0 170.0)
  end
  begin
     id 27 
     name rwrist
     direction -1 -4.4897e-011 -1.03764e-026   
     length 1.51266   
     axis 9.09556e-015 -90 -90   XYZ
    dof ry
    limits (-180.0 0.0)
  end
  begin
     id 28
     name rhand
     direction -1 -4.48941e-011 -2.07528e-026   
     length 0.78389   
     axis 1.3242e-014 -90 -90   XYZ
    dof rx rz
    limits (-90.0 90.0)
           (-45.0 45.0)
  end
  begin
     id 29
     name rfingers
     direction -1 -4.49012e-011 -4.15056e-026   
     length 0.631992   
     axis 2.64841e-014 -90 -90   XYZ
    dof rx
    limits (0.0 90.0)
  end
  begin
     id 30
     name rthumb
     direction -0.707107 -6.3496e-011 0.707107   
     length 0.907418   
     axis -90 -45 -2.85299e-015   XYZ
    dof rx rz
    limits (-45.0 45.0)
           (-45.0 45.0)
  end
:hierarchy
  begin
    root lhipjoint rhipjoint lowerback
    lhipjoint lfemur
    lfemur ltibia
    ltibia lfoot
    lfoot ltoes
    rhipjoint rfemur
    rfemur rtibia
    rtibia rfoot
    rfoot rtoes
    lowerback upperback
    upperback thorax
    thorax lowerneck lclavicle rclavicle
    lowerneck upperneck
    upperneck head
    lclavicle lhumerus
    lhumerus lradius
    lradius lwrist
    lwrist lhand lthumb
    lhand lfingers
    rclavicle rhumerus
    rhumerus rradius
    rradius rwrist
    rwrist rhand rthumb
    rhand rfingers
  end

#!OML:ASF E:\Style3\Style3.ASF
:FULLY-SPECIFIED
:DEGREES
118
root -0.0164924 17.8697 0.206778 -117.348 87.8104 -133.516
lowerback -6.2362 -1.33123 -1.71963
upperback -8.25021 -1.32705 2.10157
thorax -4.98701 -0.356927 3.11227
lowerneck -9.49914 -1.19565 -4.60375
upperneck 3.20821 -1.58479 11.2573
head 2.64309 -0.384401 4.09457
rclavicle 8.05078e-015 3.97569e-015
rhumerus -54.5468 31.4704 -105.46
rradius 54.179
rwrist -0.464689
rhand 1.23724 22.0075
rfingers 7.12502
rthumb 26.7749 -6.11757
lclavicle 8.05078e-015 3.97569e-015
lhumerus -51.1504 -27.8436 107.104
lradius 63.4203
lwrist -1.83903
lhand -2.37964 17.8808
lfingers 7.12502
lthumb 23.3092 46.4897
rfemur -15.9348 10.0473 17.6107
rtibia 13.1639
rfoot -12.506 -21.8748
rtoes -13.5275
lfemur -9.37434 -24.3454 -12.4936
ltibia -1.27222e-014
lfoot -7.14346 30.9201
ltoes -12.7086
119
root -0.0401861 17.8739 0.205591 -119.787 87.7516 -136.068
lowerback -6.04954 -1.35166 -1.78926
upperback -8.22803 -1.35781 2.13171
thorax -5.06422 -0.368248 3.18586
lowerneck -9.5043 -1.1452 -4.57233
upperneck 2.5994 -1.46373 11.3006
head 2.45382 -0.334186 4.10626
rclavicle 4.12478e-015 2.90226e-014
rhumerus -54.5378 32.3501 -105.992
rradius 54.2683
rwrist 0.461202
rhand 0.996606 22.0987
rfingers 7.12502
rthumb 26.5446 -6.06139
lclavicle 4.12478e-015 2.90226e-014
lhumerus -51.1083 -28.6357 107.657
lradius 63.9333
lwrist -2.4892
lhand -2.6536 17.5056
lfingers 7.12502
lthumb 23.0464 46.1476
rfemur -16.1608 10.026 17.5542
rtibia 13.1985
rfoot -12.2961 -22.0091
rtoes -13.947
lfemur -9.6518 -24.4362 -12.3855
ltibia -7.95139e-015
lfoot -6.9371 30.9426
ltoes -12.9027
120
root -0.0655211 17.8777 0.205407 -121.103 87.7516 -137.717
lowerback -6.10417 -1.33932 -1.88437
upperback -8.22669 -1.33775 2.13169
thorax -5.03184 -0.353089 3.23855
lowerneck -9.55923 -1.13869 -4.53612
upperneck 1.92491 -1.39361 11.3701
head 2.25806 -0.307384 4.1227
rclavicle 1.16538e-014 -1.98785e-016
rhumerus -54.4357 33.2814 -106.543
rradius 54.3348
rwrist 1.7017
rhand 0.56993 22.3875
rfingers 7.12502
rthumb 26.1362 -5.83366
lclavicle 1.16538e-014 -1.98785e-016
lhumerus -51.0326 -29.7092 108.283
lradius 64.2887
lwrist -3.31983
lhand -3.66466 16.7775
lfingers 7.12502
lthumb 22.076 45.5373
rfemur -16.6266 9.93509 17.4405
rtibia 13.2057
rfoot -12.0782 -21.99
rtoes -14.5124
lfemur -10.1677 -24.4355 -12.2048
ltibia -2.54444e-014
lfoot -6.88153 30.9334
ltoes -12.7327
121
root -0.0856547 17.8789 0.201584 -120.866 87.7076 -137.5
lowerback -5.92178 -1.31417 -1.87421
upperback -8.12357 -1.31424 2.18333
thorax -5.02508 -0.345368 3.28942
lowerneck -9.63297 -1.12847 -4.53275
upperneck 1.23736 -1.30921 11.3399
head 2.05939 -0.27746 4.11485
rclavicle 1.40019e-014 -6.16232e-015
rhumerus -54.3323 34.2857 -107.029
rradius 54.4228
rwrist 2.99256
rhand 0.300268 22.7581
rfingers 7.12502
rthumb 25.8779 -5.50101
lclavicle 1.40019e-014 -6.16232e-015
lhumerus -50.8216 -30.8238 108.947
lradius 64.4913
lwrist -4.02799
lhand -4.65812 15.8707
lfingers 7.12502
lthumb 21.1219 44.7402
rfemur -16.721 9.87075 17.4596
rtibia 13.2095
rfoot -11.9888 -21.9291
rtoes -14.59
lfemur -10.2772 -24.4439 -12.1312
ltibia -7.95139e-015
lfoot -6.78285 30.9318
ltoes -12.7599
122
root -0.105636 17.8798 0.195427 -122.736 87.6174 -139.084
lowerback -5.41373 -1.31053 -1.80015
upperback -7.93644 -1.33571 2.21064
thorax -5.11038 -0.368376 3.28366
lowerneck -9.69137 -1.08523 -4.58036
upperneck 0.509252 -1.17139 11.3827
head 1.84341 -0.219217 4.14059
rclavicle 1.17531e-014 2.98177e-015
rhumerus -54.1556 35.4903 -107.586
rradius 54.5075
rwrist 3.92948
rhand 0.293988 23.1121
rfingers 7.12502
rthumb 25.8719 -5.14788
lclavicle 1.17531e-014 2.98177e-015
lhumerus -50.3552 -31.9293 109.491
lradius 64.7697
lwrist -4.13637
lhand -4.7287 15.7053
lfingers 7.12502
lthumb 21.0541 44.5823
rfemur -16.4722 9.81641 17.4995
rtibia 13.2254
rfoot -12.0993 -21.9295
rtoes -14.1321
lfemur -10.0431 -24.5843 -12.2101
ltibia -1.59028e-014
lfoot -6.65721 30.8932
ltoes -12.8901
123
root -0.13169 17.8809 0.193154 -123.885 87.4844 -140.108
lowerback -4.95347 -1.29768 -1.70462
upperback -7.84359 -1.3364 2.22259
thorax -5.27234 -0.377081 3.25085
lowerneck -9.66128 -1.05952 -4.50235
upperneck -0.200352 -1.07135 11.3005
head 1.61952 -0.184991 4.10524
rclavicle -9.07576e-015 -6.55989e-015
rhumerus -53.9632 36.6137 -108.183
rradius 54.5842
rwrist 4.75432
rhand 0.171068 23.6936
rfingers 7.12502
rthumb 25.7542 -4.58354
lclavicle -9.07576e-015 -6.55989e-015
lhumerus -49.8928 -33.0679 109.922
lradius 65.2746
lwrist -3.94504
lhand -4.58009 15.6336
lfingers 7.12502
lthumb 21.1968 44.4947
rfemur -16.4174 9.81351 17.5684
rtibia 13.2157
rfoot -12.0453 -22.0573
rtoes -13.9793
lfemur -10.0439 -24.7005 -12.1232
ltibia 5.725e-014
lfoot -6.48042 30.8151
ltoes -13.0452
124
root -0.155578 17.8804 0.189977 -123.47 87.528 -139.692
lowerback -4.67081 -1.22765 -1.70117
upperback -7.79056 -1.25388 2.19453
thorax -5.38181 -0.33878 3.22514
lowerneck -9.5596 -1.03749 -4.45855
upperneck -1.01764 -0.97067 10.8863
head 1.48294 -0.169832 4.40129
rclavicle 8.01351e-016 3.77691e-015
rhumerus -53.7181 37.6271 -108.746
rradius 54.6234
rwrist 5.4181
rhand 0.329822 24.2294
rfingers 7.12502
rthumb 25.9062 -4.02562
lclavicle 8.01351e-016 3.77691e-015
lhumerus -49.3886 -34.1745 110.305
lradius 65.8644
lwrist -3.64612
lhand -4.63767 15.2354
lfingers 7.12502
lthumb 21.1415 44.1027
rfemur -16.5502 9.72331 17.5318
rtibia 13.2849
rfoot -11.9655 -21.9195
rtoes -13.7773
lfemur -10.1266 -24.6574 -12.1285
ltibia -1.11319e-014
lfoot -6.30743 30.7959
ltoes -13.4091
